<svg class="_mk_vkAdIconImg" xmlns="http://www.w3.org/2000/svg" viewBox="0 0 15 15" fill="currentColor"><path d="M0 7.2c0-3.4 0-5.1 1.05-6.15C2.11 0 3.8 0 7.2 0h.6c3.4 0 5.1 0 6.15 1.05C15 2.11 15 3.8 15 7.2v.6c0 3.4 0 5.1-1.05 6.15C12.89 15 11.2 15 7.8 15h-.6c-3.4 0-5.1 0-6.15-1.05C0 12.89 0 11.2 0 7.8Zm13-4.06a.6.6 0 0 1 .39 1.03l-1.41 1.4a.75.75 0 0 1-.62.22l-.96-.08-1.2 1.2a1.8 1.8 0 1 1-1.04-1.09l1.18-1.17-.12-1a.74.74 0 0 1 .22-.62l1.4-1.4a.6.6 0 0 1 1.03.37l.04 1.08Zm-5.1-.43a4.82 4.82 0 0 0-5.15 5.51 4.8 4.8 0 0 0 9.53-1.14l-1.6-.13a3.23 3.23 0 1 1-2.6-2.63Zm0 0" fill-rule="evenodd" fill="#fff"/></svg>